<svg width="120" height="40" viewBox="0 0 120 40" fill="none" xmlns="http://www.w3.org/2000/svg">
  <!-- Background circle for modern touch -->
  <circle cx="20" cy="20" r="18" fill="#000000" opacity="0.1"/>
  
  <!-- Letter A -->
  <path d="M8 30 L12 18 L16 18 L20 30 L17 30 L15.5 25 L12.5 25 L11 30 Z M13 22 L15 22 L14 25 Z" fill="#000000"/>
  
  <!-- Letter I -->
  <rect x="22" y="18" width="2" height="12" fill="#000000"/>
  <rect x="20" y="18" width="6" height="2" fill="#000000"/>
  <rect x="20" y="28" width="6" height="2" fill="#000000"/>
  
  <!-- Letter M -->
  <path d="M30 18 L30 30 L32 30 L32 22 L35 25 L38 22 L38 30 L40 30 L40 18 L38 18 L35 21 L32 18 Z" fill="#000000"/>
  
  <!-- Letter A -->
  <path d="M42 30 L46 18 L50 18 L54 30 L51 30 L49.5 25 L46.5 25 L45 30 Z M47 22 L49 22 L48 25 Z" fill="#000000"/>
  
  <!-- Letter N -->
  <path d="M56 18 L56 30 L58 30 L58 22 L61 25 L64 18 L62 18 L59 23 L58 22 L58 18 Z" fill="#000000"/>
  
  <!-- Modern accent line -->
  <rect x="8" y="32" width="56" height="1" fill="#000000" opacity="0.3"/>
</svg>
