<svg width="140" height="40" viewBox="0 0 140 40" fill="none" xmlns="http://www.w3.org/2000/svg">
  <!-- Modern geometric background -->
  <rect x="0" y="0" width="140" height="40" fill="#ffffff"/>
  
  <!-- Letter A - Modern geometric style -->
  <path d="M8 32 L12 20 L16 20 L20 32 L17.5 32 L16.2 28 L12.8 28 L11.5 32 Z M13.5 24 L15.5 24 L14.5 27 Z" fill="#000000"/>
  
  <!-- Letter I - Clean vertical line -->
  <rect x="24" y="20" width="3" height="12" fill="#000000"/>
  <rect x="22" y="20" width="7" height="3" fill="#000000"/>
  <rect x="22" y="29" width="7" height="3" fill="#000000"/>
  
  <!-- Letter M - Bold geometric -->
  <path d="M32 20 L32 32 L34 32 L34 24 L37 27 L40 24 L40 32 L42 32 L42 20 L40 20 L37 23 L34 20 Z" fill="#000000"/>
  
  <!-- Letter A - Matching style -->
  <path d="M44 32 L48 20 L52 20 L56 32 L53.5 32 L52.2 28 L48.8 28 L47.5 32 Z M49.5 24 L51.5 24 L50.5 27 Z" fill="#000000"/>
  
  <!-- Letter N - Clean diagonal -->
  <path d="M58 20 L58 32 L60 32 L60 24 L63 27 L66 20 L64 20 L61 25 L60 24 L60 20 Z" fill="#000000"/>
  
  <!-- Modern accent dot -->
  <circle cx="70" cy="26" r="2" fill="#000000" opacity="0.6"/>
  
  <!-- Subtle underline accent -->
  <rect x="8" y="34" width="58" height="1" fill="#000000" opacity="0.2"/>
</svg>
